<svg xmlns="http://www.w3.org/2000/svg" version="1.1" viewBox="-5.0 -10.0 110.0 135.0">
 <path d="m50 8.332c-18.383 0-33.332 14.949-33.332 33.336v41.664c0 4.5781 3.7539 8.3359 8.332 8.3359 3.4258 0 6.25-2.8242 6.25-6.25v-4.168c0-1.1758 0.90625-2.082 2.082-2.082s2.0859 0.90625 2.0859 2.082v4.168c0 3.4258 2.8203 6.25 6.25 6.25 3.4258 0 6.25-2.8242 6.25-6.25v-4.168c0-1.1758 0.90625-2.082 2.082-2.082s2.082 0.90625 2.082 2.082v4.168c0 3.4258 2.8242 6.25 6.25 6.25 3.4297 0 6.25-2.8242 6.25-6.25v-4.168c0-1.1758 0.91016-2.082 2.0859-2.082s2.082 0.90625 2.082 2.082v4.168c0 3.4258 2.8242 6.25 6.25 6.25 4.5781 0 8.332-3.7578 8.332-8.3359v-41.664c0-18.387-14.949-33.336-33.332-33.336zm-20.996 27.094c0.25781-0.023437 0.51562 0.007813 0.76562 0.082031l20.23 6.0703 20.223-6.0703c0.75781-0.23047 1.582-0.011718 2.125 0.56641 0.54297 0.57812 0.71094 1.4141 0.42969 2.1562l-6.25 16.668c-0.37891 1.0117-1.4727 1.5625-2.5156 1.2695l-14.012-4.0039-14.012 4.0039c-1.0469 0.30078-2.1445-0.25391-2.5234-1.2695l-6.25-16.668c-0.23047-0.60938-0.16016-1.2969 0.19141-1.8477 0.35547-0.55469 0.94531-0.90625 1.5977-0.95703z"/>
<text x="0.0" y="117.5" font-size="5.0" font-weight="bold" font-family="Arbeit Regular, Helvetica, Arial-Unicode, Arial, Sans-serif" fill="#000000">Created by Ian Banyuke</text><text x="0.0" y="122.5" font-size="5.0" font-weight="bold" font-family="Arbeit Regular, Helvetica, Arial-Unicode, Arial, Sans-serif" fill="#000000">from Noun Project</text></svg>