<svg xmlns="http://www.w3.org/2000/svg" width="212" height="44" viewBox="0 0 212 44" fill="none">
<rect width="212" height="44" rx="8" fill="black"/>
  <rect width="212" height="44" rx="8" fill="black"/>
  <text 
    x="127" 
    y="50%" 
    fill="white" 
    font-family="Geist, sans-serif" 
    font-size="15" 
    font-weight="200"
    text-anchor="middle" 
    dominant-baseline="middle">
    Powered by <tspan font-weight="400" dominant-baseline="middle">Leapcell</tspan>
  </text>
<g transform="translate(9, 10) scale(0.08)">
  <path fill-rule="evenodd" fill="white" clip-rule="evenodd" d="M27.2001 41.2589C23.4286 41.7212 18.8318 44.0996 17.2291 44.9333C9.31186 49.0561 -1.75631 59.4928 2.15274 69.6652C2.76693 71.2676 3.41953 72.7914 4.82064 73.8335C15.5049 81.7806 27.1617 68.7842 33.777 60.9117C36.0514 58.2059 37.8812 55.3761 38.5753 51.7613C39.4934 46.986 32.4719 40.6127 27.2001 41.2589Z"/>
<path fill-rule="evenodd" fill="white" clip-rule="evenodd" d="M27.0432 39.8738C30.594 39.4391 34.8837 41.7563 37.5004 44.9032C39.3526 47.1337 40.3282 49.7557 39.89 52.0345C39.1479 55.8985 37.2157 58.9374 34.7845 61.8298C30.7028 66.6873 24.7272 73.4077 18.2463 76.2688C13.6239 78.3111 8.74876 78.468 4.04319 74.9678C2.42136 73.7631 1.61842 72.0351 0.908264 70.1829C-0.81274 65.7011 0.0509842 61.1663 2.33179 57.0552C5.56268 51.2228 11.6821 46.2631 16.6308 43.6861C18.3038 42.8161 23.1054 40.3564 27.0432 39.8738ZM27.3567 42.6433C23.7484 43.0856 19.3595 45.3831 17.8304 46.1801C13.2752 48.5506 7.62276 53.084 4.65099 58.4491C2.79243 61.8032 1.9895 65.4909 3.39381 69.147C3.91523 70.4997 4.41426 71.8193 5.59785 72.6986C10.4506 76.3061 15.5176 75.0574 20.1272 72.116C25.0855 68.9505 29.5384 63.8396 32.7693 59.9933C34.8869 57.4739 36.6175 54.8536 37.2637 51.4876C37.5612 49.9455 36.7295 48.2372 35.4755 46.7274C33.4282 44.264 30.1366 42.3029 27.3567 42.6433Z"/>
<path fill-rule="evenodd" fill="white" clip-rule="evenodd" d="M174.314 225.838C174.359 225.838 174.4 225.838 174.445 225.841C174.375 225.848 174.333 225.844 174.314 225.838ZM279.289 43.9957C274.42 48.1824 267.913 56.0961 266.858 57.1959C258.442 65.9577 244.715 90.0181 261.132 98.2386C271.445 103.404 283.626 81.9498 286.464 73.0871C286.899 71.7275 288.201 68.2086 289.592 64.2664C293.69 74.3348 296.905 85.3817 298.552 95.6663C302.452 120.024 298.271 136.701 288.444 160.576C283.342 172.973 276.4 184.33 269.801 195.785C259.622 213.448 249.91 231.646 237.882 244.813C228.945 254.595 221.411 261.303 213.548 269.49C211.715 271.398 203.657 277.913 203.779 277.913C199.003 282.05 179.48 289.224 174.346 282.543C169.096 275.712 178.882 251.777 179.922 243.107C180.475 238.501 181.064 232.473 178.962 228.089C177.375 224.792 174.112 225.741 174.314 225.838C167.603 225.788 156.339 239.104 152.577 243.024C139.212 256.94 129.756 270.676 116.35 284.635C110.649 290.57 100.682 302.681 91.4178 299.466C84.4186 297.038 84.6521 287.642 86.0756 281.337C89.8343 264.707 96.0562 250.022 102.499 234.368C106.005 225.848 112.626 216.822 113.624 205.464C113.311 203.835 113.375 199.568 111.395 198.882C104.546 196.504 94.8118 200.554 89.2713 204.881C80.5671 211.679 67.3397 228.742 58.7827 232.562C52.9223 235.177 46.3678 232.229 42.7306 223.183C41.3935 219.856 40.8561 216.512 40.1907 213.401C37.7787 202.093 44.1349 169.602 45.0242 165.589C46.4893 158.98 51.1341 139.982 52.0874 137.327C57.1513 123.269 63.1395 109.842 69.0063 96.0973C74.1533 84.0405 80.871 72.4599 87.5983 61.2551C89.9143 57.3921 94.8342 51.8069 94.6806 47.5642C93.4522 43.2343 82.8735 45.0249 77.9248 45.5981C69.3966 46.5873 49.3779 47.0419 55.8493 33.5629C61.4313 21.938 83.734 14.7944 95.0389 12.8329C127.05 7.27762 158.185 0 191.741 0C198.376 0 223.967 3.03794 227.47 5.02804C237.492 7.52008 258.272 19.6785 262.846 23.3623C268.985 28.303 274.765 36.4546 279.289 43.9957ZM138.88 90.946C136.135 93.993 137.056 102.481 143.025 105.876C153.105 111.608 172.11 114.918 174.451 115.408C185.385 117.683 201.732 117.38 203.862 112.244C207.941 102.419 201.629 94.9159 192.033 90.7448C189.701 89.7306 173.68 85.1429 158.911 85.1466C155.712 85.1473 142.939 86.4399 138.88 90.946Z"/>
</g>
<line x1="43.5" y1="2.18557e-08" x2="43.5" y2="44" stroke="#5E5E5E"/>
</svg>